<svg viewBox="675 430 600 215" xmlns="http://www.w3.org/2000/svg" fill="currentColor" style="fill-rule:evenodd;clip-rule:evenodd;stroke-linejoin:round;stroke-miterlimit:2;">
    <g>
        <g transform="matrix(1,0,0,1,995.122,583.093)">
            <path d="M0,-86.868C-4.738,-98.933 -10.857,-108.895 -18.366,-116.763C-25.873,-124.626 -34.275,-130.437 -43.567,-134.19C-49.043,-136.401 -54.485,-137.942 -59.896,-138.851L-59.896,-133.37C-56.573,-132.233 -53.319,-130.59 -50.137,-128.426C-43.434,-123.868 -37.493,-117.567 -32.308,-109.523C-27.125,-101.48 -23.016,-91.829 -19.975,-80.567C-16.937,-69.307 -15.416,-56.973 -15.416,-43.569C-15.416,-31.235 -16.937,-19.526 -19.975,-8.445C-23.016,2.639 -27.125,12.426 -32.308,20.913C-37.493,29.404 -43.434,36.107 -50.137,41.021C-53.319,43.356 -56.573,45.129 -59.896,46.354L-59.896,51.983C-54.485,51.074 -49.043,49.532 -43.567,47.321C-34.275,43.569 -25.873,37.761 -18.366,29.895C-10.857,22.03 -4.738,12.023 0,-0.135C4.733,-12.287 7.105,-26.765 7.105,-43.569C7.105,-60.367 4.733,-74.803 0,-86.868" style="fill-rule:nonzero;"/>
        </g>
        <g transform="matrix(1,0,0,1,903.026,455.366)">
            <path d="M0,168.613C-6.614,163.788 -12.513,157.131 -17.695,148.639C-22.882,140.153 -26.991,130.366 -30.029,119.282C-33.069,108.2 -34.586,96.491 -34.586,84.157C-34.586,70.754 -33.069,58.42 -30.029,47.159C-26.991,35.898 -22.882,26.246 -17.695,18.203C-12.513,10.16 -6.614,3.859 0,-0.699C3.213,-2.914 6.512,-4.586 9.895,-5.725L9.895,-11.141C4.513,-10.235 -0.929,-8.687 -6.435,-6.464C-15.731,-2.71 -24.13,3.1 -31.638,10.964C-39.145,18.831 -45.269,28.794 -50.002,40.859C-54.74,52.924 -57.107,67.36 -57.107,84.157C-57.107,100.961 -54.74,115.44 -50.002,127.592C-45.269,139.75 -39.145,149.757 -31.638,157.621C-24.13,165.488 -15.776,171.295 -6.568,175.048C-1.065,177.292 4.422,178.851 9.895,179.754L9.895,174.133C6.512,172.883 3.213,171.046 0,168.613" style="fill-rule:nonzero;"/>
        </g>
        <g transform="matrix(1,0,0,1,700.872,628.953)">
            <path d="M0,-16.771C0,-10.872 -0.937,-6.402 -2.815,-3.364C-4.691,-0.325 -7.331,1.64 -10.725,2.533L-10.725,4.41L15.282,4.41L15.282,2.533C11.885,1.64 9.204,-0.325 7.239,-3.364C5.271,-6.402 4.29,-10.872 4.29,-16.771L4.29,-21.181L0,-21.181L0,-16.771Z" style="fill-rule:nonzero;"/>
        </g>
        <g transform="matrix(1,0,0,1,814.819,616.335)">
            <path d="M0,-153.622L0,-15.95L-96.788,-170.65L-124.672,-170.65L-124.672,-168.773C-121.278,-167.877 -118.639,-165.912 -116.763,-162.874C-114.885,-159.832 -113.947,-155.455 -113.947,-149.737L-113.947,-25.592L-109.657,-25.592L-109.657,-155.368L-1.877,17.028L4.29,17.028L4.29,-153.622L0,-153.622Z" style="fill-rule:nonzero;"/>
        </g>
        <g transform="matrix(1,0,0,1,819.109,450.314)">
            <path d="M0,16.285C0,10.566 0.938,6.189 2.814,3.147C4.692,0.11 7.327,-1.855 10.724,-2.751L10.724,-4.629L-15.014,-4.629L-15.014,-2.751C-11.797,-1.855 -9.208,0.11 -7.239,3.147C-5.274,6.189 -4.29,10.566 -4.29,16.285L-4.29,20.914L0,20.914L0,16.285Z" style="fill-rule:nonzero;"/>
        </g>
        <g transform="matrix(1,0,0,1,1194.19,578.131)">
            <path d="M0,-74.802L-28.955,13.138L-74.267,-132.446L-109.657,-132.446L-109.657,-130.569C-105.728,-129.673 -102.284,-127.708 -99.335,-124.67C-96.386,-121.628 -93.931,-117.251 -91.963,-111.532L-80.434,-74.266L-109.121,13.138L-147.997,-111.532C-149.069,-115.106 -149.605,-118.144 -149.605,-120.648C-149.605,-122.257 -149.25,-124.088 -148.533,-126.145C-147.821,-128.198 -145.765,-129.673 -142.367,-130.569L-142.367,-132.446L-189.822,-132.446L-189.822,-130.569C-185.894,-129.673 -182.45,-127.708 -179.5,-124.67C-176.551,-121.628 -174.097,-117.251 -172.127,-111.532L-119.578,57.644C-117.793,52.462 -116.138,47.59 -114.617,43.033C-113.101,38.476 -111.535,33.784 -109.925,28.957C-108.316,24.132 -106.574,18.815 -104.698,13.006C-102.82,7.198 -100.634,0.537 -98.129,-6.97C-95.627,-14.477 -92.725,-23.099 -89.415,-32.843C-86.109,-42.582 -82.31,-53.976 -78.021,-67.027L-39.412,57.644C-37.628,52.282 -35.839,47.1 -34.05,42.095C-32.441,37.268 -30.745,32.086 -28.955,26.544C-27.172,21.007 -25.16,14.927 -22.924,8.313C-20.691,1.701 -18.098,-6.073 -15.147,-15.012C-12.199,-23.949 -8.806,-34.271 -4.96,-45.979C-1.119,-57.685 3.394,-71.316 8.58,-86.867C8.814,-87.515 9.048,-88.153 9.28,-88.783C9.533,-89.469 9.026,-90.196 8.296,-90.196L5.353,-90.196C4.379,-90.196 3.541,-89.513 3.349,-88.559C2.708,-85.374 1.228,-78.348 0,-74.802" style="fill-rule:nonzero;"/>
        </g>
        <g transform="matrix(1,0,0,1,1216.71,457.554)">
            <path d="M0,1.805C4.109,-5.166 8.487,-9.095 13.138,-9.991L13.138,-11.869L-29.224,-11.869L-29.224,-9.991C-25.295,-9.095 -22.479,-6.594 -20.778,-2.485C-19.082,1.63 -18.144,5.425 -17.964,8.911C-17.963,8.93 -17.962,8.95 -17.961,8.969C-17.828,11.605 -15.654,13.674 -13.015,13.674L-9.199,13.674C-7.246,13.674 -5.479,12.534 -4.65,10.765C-3.031,7.304 -1.481,4.314 0,1.805" style="fill-rule:nonzero;"/>
        </g>
        <g transform="matrix(0,-1,-1,0,1238.83,595.856)">
            <path d="M-19.959,-19.959C-30.982,-19.959 -39.918,-11.022 -39.918,0C-39.918,11.023 -30.982,19.959 -19.959,19.959C-8.936,19.959 -0,11.023 -0,0C-0,-11.022 -8.936,-19.959 -19.959,-19.959" style="fill-rule:nonzero;"/>
        </g>
    </g>
</svg>
